<svg xmlns="http://www.w3.org/2000/svg" style="display:none;">   
 <path id='bg2' d="M0 0H1925V2354H0V0Z" fill="url(#paint0_linear_58_66)"/>
    <path id='display'
          d="M0 18.75C0 18.75 0 9.375 9.375 9.375H65.625C65.625 9.375 75 9.375 75 18.75V46.875C75 46.875 75 56.25 65.625 56.25H46.875C46.875 59.3766 47.2641 61.7203 48.0469 63.2812H51.5625C52.1841 63.2812 52.7802 63.5282 53.2198 63.9677C53.6593 64.4073 53.9062 65.0034 53.9062 65.625C53.9062 66.2466 53.6593 66.8427 53.2198 67.2823C52.7802 67.7218 52.1841 67.9688 51.5625 67.9688H23.4375C22.8159 67.9688 22.2198 67.7218 21.7802 67.2823C21.3407 66.8427 21.0938 66.2466 21.0938 65.625C21.0938 65.0034 21.3407 64.4073 21.7802 63.9677C22.2198 63.5282 22.8159 63.2812 23.4375 63.2812H26.9531C27.7359 61.7203 28.125 59.3766 28.125 56.25H9.375C9.375 56.25 0 56.25 0 46.875V18.75ZM6.55312 14.7422C6.03823 15.1007 5.62743 15.5891 5.3625 16.1578C4.96293 16.9834 4.73339 17.8808 4.6875 18.7969V46.875C4.6875 48.3984 5.05312 49.2281 5.36719 49.6969C5.69531 50.1891 6.16406 50.5781 6.78281 50.8875C7.57283 51.2702 8.42893 51.4977 9.30469 51.5578L9.42188 51.5625H65.625C67.1484 51.5625 67.9781 51.1969 68.4469 50.8828C68.9618 50.5243 69.3726 50.0359 69.6375 49.4672C70.0202 48.6772 70.2477 47.8211 70.3078 46.9453L70.3125 46.8281V18.75C70.3125 17.2266 69.9469 16.3969 69.6328 15.9281C69.2745 15.4131 68.786 15.0022 68.2172 14.7375C67.3916 14.3379 66.4942 14.1084 65.5781 14.0625H9.375C7.85156 14.0625 7.02187 14.4281 6.55312 14.7422Z"
          fill="#00C4F0"/>
    <g id='vector-ven'>
        <path fill-rule="evenodd" clip-rule="evenodd"
              d="M68.498 84.6435C68.4984 84.9518 68.4379 85.2571 68.3202 85.542C68.2024 85.8269 68.0295 86.0857 67.8115 86.3037C67.5935 86.5217 67.3347 86.6946 67.0498 86.8124C66.7649 86.9302 66.4596 86.9906 66.1513 86.9902L39.6348 86.9902C39.3265 86.9906 39.0212 86.9302 38.7363 86.8124C38.4514 86.6946 38.1925 86.5217 37.9745 86.3037C37.7565 86.0857 37.5837 85.8269 37.4659 85.542C37.3481 85.2571 37.2877 84.9518 37.2881 84.6435L37.2881 72.0349L29.0547 58.306C28.4275 57.2609 28.0828 56.0707 28.0543 54.8521C28.0258 53.6336 28.3146 52.4286 28.8923 51.3553L52.893 6.77777L76.8971 51.3586C77.4736 52.4311 77.7617 53.6349 77.7332 54.8521C77.7047 56.0693 77.3607 57.2583 76.7347 58.3027L68.498 72.0283L68.498 84.6435ZM64.8255 69.0385L72.7141 55.893C72.9236 55.5441 73.0387 55.1467 73.048 54.7399C73.0573 54.3331 72.9605 53.9308 72.7672 53.5728L52.8963 16.6651L33.0189 53.5794C32.8279 53.9365 32.7327 54.3371 32.7426 54.742C32.7524 55.1468 32.8671 55.5423 33.0753 55.8897L40.9639 69.0418L64.8288 69.0418L64.8255 69.0385Z"
              fill="#00C4F0"/>
        <path fill-rule="evenodd" clip-rule="evenodd"
              d="M52.6943 17.0397L49.5786 48.1833C48.923 48.8389 48.4766 49.6741 48.2957 50.5834C48.1148 51.4927 48.2077 52.4352 48.5624 53.2917C48.9172 54.1482 49.518 54.8803 50.2889 55.3954C51.0597 55.9104 51.966 56.1854 52.8931 56.1854C53.8202 56.1854 54.7265 55.9104 55.4974 55.3954C56.2682 54.8803 56.869 54.1482 57.2238 53.2917C57.5786 52.4352 57.6714 51.4927 57.4906 50.5834C57.3097 49.6741 56.8633 48.8389 56.2077 48.1833L53.092 17.0397L52.8931 16.6684L52.6943 17.0397Z"
              fill="#00C4F0"/>
    </g>
    <g id="nav-icon">
        <path d="M19.2431 0H74.0627V16.3094H19.2431V0Z" fill="#00C4F0"/>
        <path d="M19.2431 29.3438H74.0627V45.6531H19.2431V29.3438Z" fill="#00C4F0"/>
        <path d="M19.2431 58.6907H74.0627V75H19.2431V58.6907Z" fill="#00C4F0"/>
        <path d="M0 0H13.9795V16.3094H0V0Z" fill="#00C4F0"/>
        <path d="M0 29.3438H13.9795V45.6531H0V29.3438Z" fill="#00C4F0"/>
        <path d="M0 58.6907H13.9795V75H0V58.6907Z" fill="#00C4F0"/>
    </g>
    <g id="ship">
        <path d="M5.30502 24L16.6723 42L31.8301 29L5.30502 24Z" stroke="#00C1EC" stroke-width="4" stroke-linecap="round"
              stroke-linejoin="round"/>
        <path d="M58.3552 24L46.9879 42L31.8301 29L58.3552 24Z" stroke="#00C1EC" stroke-width="4" stroke-linecap="round"
              stroke-linejoin="round"/>
        <path d="M17.2413 42H46.4189L31.8301 29L17.2413 42Z" stroke="#00C1EC" stroke-width="4" stroke-linecap="round"
              stroke-linejoin="round"/>
        <path d="M15.915 26L31.8301 4L47.7451 26" stroke="#00C1EC" stroke-width="4" stroke-linejoin="round"/>
    </g>
    <g id="design_logo">
        <path d="M9.375 37.5H37.5V65.625H9.375V37.5Z" fill="#00C4F0"/>
        <path d="M37.5 9.375H65.625V37.5H37.5V9.375Z" fill="#00C4F0"/>
    </g>
    <g id="vector">
        <path d="M0 5H13M13 5L10.0286 9M13 5L10.0286 1" stroke="#E2A100"/>
    </g>
    <g id="eclipse">
        <ellipse cx="44.5534" cy="45" rx="44.0725" ry="45" fill="url(#paint0_linear_58_139)"/>
    </g>
    <g id="secVector">
        <path d="M28.5 16.5L18 6L7.5 16.5" stroke="#E4E4E4" stroke-width="2" stroke-linecap="round" stroke-linejoin="round"/>
        <path d="M18 6L18 30" stroke="#E4E4E4" stroke-width="2" stroke-linecap="round" stroke-linejoin="round"/>

    </g>
</svg>